<svg xmlns="http://www.w3.org/2000/svg" viewBox="0 0 113.88 14.58">
  <defs>
    <filter id="a" color-interpolation-filters="sRGB">
      <feGaussianBlur stdDeviation=".71" result="blur"/>
      <feBlend in2="blur"/>
    </filter>
  </defs>
  <path d="M56.54 95.23q.37 0 .37.36 0 .46-1.08 1.12-1.08.66-2.1.66-.89 0-1.64-.59t-.75-1.7q0-1.14.79-2.53.78-1.39 1.94-2.26 1.16-.87 2.27-.87.66 0 1.05.39.4.4.4.92 0 .56-.1.82-.09.24-.37.42-.3.17-.48.17t-.32-.13q-.14-.13-.14-.36 0-.15.09-.45.07-.3.07-.5 0-.34-.23-.34-.7 0-1.58.75-.88.76-1.5 1.88-.63 1.12-.63 1.98 0 .57.33.96.33.4.96.4.37 0 .94-.2t1.05-.55q.48-.35.66-.35zm5.14.28q-1.51 1.2-2.33 1.2-.53 0-.84-.42-.31-.43-.31-1.02 0-.76.3-1.9t.52-1.32q.21-.18.56-.18.21 0 .35.2.14.2.14.45 0 .08-.35.83-.44.92-.44 1.6 0 .31.1.51.11.2.23.2.23 0 .55-.13.32-.14.78-.5t.59-.54q.12-.18.2-.48.09-.3.13-1.27.02-.57.05-.71.04-.15.18-.27.14-.13.38-.13.33 0 .46.14.14.14.14.65 0 .7-.25 2.95-.25 2.26-.9 3.27-.66 1.01-1.77 1.01-1 0-1.74-.52t-.74-.92q0-.23.11-.37.12-.14.3-.14.17 0 .28.14.7.81 1.7.81 1.26 0 1.62-3.14zm5.45.86l.25-1.2.16-.85q-.63.5-1.32.87-.68.36-1.09.36-.52 0-.84-.42-.31-.41-.31-1.02 0-.65.17-1.32.18-.67.43-.95.26-.28.68-.28.22 0 .32.23.11.22.11.42 0 .28-.28.79-.25.45-.25.85 0 .22.06.39.07.16.15.16.42 0 1.04-.42.63-.42.9-.74.26-.33.26-.72 0-.12-.02-.2l-.02-.16q0-.33.19-.56.2-.22.43-.22.34 0 .48.15.14.14.14.64 0 1.13-.24 2.8-.23 1.65-.37 1.87-.15.22-.46.22-.3 0-.46-.13-.16-.11-.16-.3 0-.16.05-.26zm5.77-1.07Q71.62 97 70.44 97q-.44 0-.76-.36-.32-.34-.32-.88 0-1.3 1.16-2.77t2.33-1.47q.6 0 .79.6.56 0 .56.43 0 .2-.1.75-.2 1-.2 1.61 0 .63.08.89l.13.33q.04.08.24.17.2.09.2.26 0 .25-.26.41-.25.17-.53.17-.46 0-.67-.46-.2-.46-.2-1.08v-.15l.01-.15zm-.26-2.73q-.5 0-1.3 1.1-.78 1.09-.78 1.86 0 .4.16.4.58 0 1.43-1.03t.85-1.8q0-.24-.12-.39-.1-.14-.24-.14zm4.27 4.63q-.81 0-1.23-.44-.43-.44-.43-1.22 0-1.24 1-2.68 1.02-1.44 1.98-1.44.47 0 .8.47.33.46.33.96 0 .47-.18.64-.17.16-.33.16-.48 0-.56-.66-.06-.48-.24-.48-.38 0-1.01 1.1-.63 1.08-.63 1.9 0 .66.72.66.79 0 1.6-.56.37-.27.6-.27.26 0 .26.27 0 .38-.87.99-.86.6-1.81.6zm8.14-2.27q.02 1.12.36 1.4.2.16.2.3 0 .19-.26.34-.25.16-.47.16-.44 0-.69-.53-.23-.53-.23-1.55v-.34q0-.02-.22-.02-.52 0-1.2.09-.67.08-.67.2 0 .17-.1.52-.05.17-.05.36l.02.41q0 .34-.18.59t-.5.24q-.57 0-.57-.65l.02-.4q0-.16.1-.77.14-.82.22-2.11l.08-1.06q0-.16.22-.33.21-.17.47-.17.53 0 .53.4l-.01.1q-.22 1.38-.22 1.77v.03q.04.03 1.33-.1.65-.06.76-.1.07-.02.14-.86.06-.79.25-1.05.2-.27.53-.27t.48.15q.15.15.11.4l-.08.36-.08.3q-.3.99-.3 1.87zm4.72.37Q88.48 97 87.3 97q-.44 0-.76-.36-.32-.34-.32-.88 0-1.3 1.16-2.77t2.34-1.47q.6 0 .78.6.57 0 .57.43 0 .2-.11.75-.2 1-.2 1.61 0 .63.08.89l.13.33q.04.08.24.17.2.09.2.26 0 .25-.26.41-.25.17-.53.17-.46 0-.66-.46t-.2-1.08v-.3zm-.27-2.73q-.5 0-1.3 1.1-.78 1.09-.78 1.86 0 .4.17.4.58 0 1.42-1.03.85-1.03.85-1.8 0-.24-.11-.39-.11-.14-.25-.14zm11.24 2.68q0 .5-.86 1.22-.86.7-1.94.7-.83 0-1.3-.52-.48-.52-.48-1.45 0-1.38.97-2.58.97-1.2 2.08-1.2.55 0 .88.35.33.34.33.83 0 .85-.81 1.62-.82.78-2.1 1.07-.15.03-.15.18 0 .23.2.45.21.2.56.2.99 0 1.96-1 .19-.2.36-.2.3 0 .3.33zm-3.3-.87q.78-.16 1.37-.67.6-.5.6-.91 0-.17-.1-.27-.09-.12-.23-.12-.43 0-.95.63t-.68 1.34zm9.28 2.09q0 .12-.16.34-.15.21-.55.21-.48 0-.86-.82-.39-.83-.55-1.81l-.16-.77-.04-.3-.04-.27-.17.36q-.62 1.36-1.35 2.48l-.05.11-.08.1q-.6 1.09-1 1.09-.55 0-.55-.5 0-.38.52-1 .63-.76 1.64-2.68l.7-1.33q.1-.2.37-.2.16 0 .38.1t.29.23q.07.13.14.43.35 1.66.63 2.61.29.96.63 1.21.26.14.26.4zm5.2-1.22q0 .5-.85 1.22-.86.7-1.94.7-.83 0-1.3-.52-.48-.52-.48-1.45 0-1.38.97-2.58.97-1.2 2.08-1.2.55 0 .88.35.33.34.33.83 0 .85-.82 1.62-.81.78-2.1 1.07-.14.03-.14.18 0 .23.2.45.21.2.56.2.99 0 1.96-1 .19-.2.36-.2.3 0 .3.33zm-3.28-.87q.77-.16 1.36-.67.6-.5.6-.91 0-.17-.1-.27-.09-.12-.23-.12-.43 0-.95.63t-.68 1.34zm6.7.05q.23.05.42.2.2.13.46.5.5.7.8.92.3.22.65.22.36 0 .36.23 0 .21-.25.43t-.8.22q-.82 0-1.67-1.36-.5-.8-.83-.8-.05 0-.24.05-.2.07-.26.12-.05.05-.1.63l-.05.9q0 .22-.18.38-.17.16-.43.16-.27 0-.42-.15-.15-.15-.15-.3 0-.19.12-.8.3-1.55.47-3.78.02-.29.23-.52.22-.24.51-.24.2 0 .33.17.14.18.14.4 0 .18-.06.36-.08.21-.21.86-.14.66-.17 1 .59-.18.91-.5.33-.3.8-1 .4-.57.76-.84t.78-.27q.23 0 .43.2.2.19.2.4 0 .18-.12.28-.1.09-.38.17-.35.1-.75.56-.82.95-1.3 1.2zm4.63 2.2q-.06.5-.57.5-.64 0-.64-.93 0-1.5.16-2.56.13-.83.13-1.63 0-.2.12-.32.13-.13.35-.13.73 0 .73.89 0 .29-.26 1.48-.16.7-.16 1.02 1.4-3.08 2.54-3.08.45 0 .73.36.28.37.29 1.61 0 1.14.12 1.14.08 0 .6-1.1.6-1.23 1-1.62.42-.4.88-.4.54 0 .79.48.24.47.34 1.58.08.88.2 1.34.13.45.43.6.25.11.25.35 0 .2-.28.42-.28.22-.57.22-.5 0-.79-.5-.28-.5-.38-1.98-.05-.71-.11-.95-.06-.23-.19-.23-.1 0-.3.35-.22.35-.72 1.4-.45.94-.77 1.31-.32.37-.69.37-.28 0-.57-.24-.29-.25-.31-1.78-.03-1.37-.18-1.37-.2 0-.99 1.22-.79 1.21-1.18 2.17zm9.92-.02q-.1.4-.25 1.47-.15 1.07-.18 1.43-.03.37-.25.62-.22.26-.4.26-.22 0-.44-.17-.21-.16-.21-.36 0-.4.12-.92.74-2.94.8-6.06v-.1q0-.6.05-.82.03-.21.24-.41.2-.2.49-.2.23 0 .38.21.15.22.15.61 0 .4-.15 1.41.55-.9 1.3-1.5.77-.6 1.39-.6.55 0 .93.4.39.39.39.98 0 1.59-1.23 2.89t-2.43 1.3q-.56 0-.7-.44zm2.85-4.01q-.6 0-1.56 1.16-.95 1.17-.95 1.84 0 .17.17.3.17.14.4.14.62 0 1.42-.98.81-.98.81-1.89 0-.3-.1-.44-.08-.13-.2-.13zm7.1 1.85q-.33 1.14-1.26 1.93-.92.79-1.83.79-.73 0-1.2-.53-.47-.54-.47-1.31 0-1.27.86-2.5.87-1.22 2.1-1.22.84 0 1.36.62.52.62.52 1.48 0 .37-.09.73zm-2.56-1.56q-.34.3-.67.98-.33.66-.33 1.34 0 .4.15.67.15.26.4.26.6 0 1.26-.72t.66-1.62q0-.5-.22-.83-.2-.33-.6-.33-.35 0-.64.25zm8.1 2.04q.01 1.12.35 1.4.2.16.2.3 0 .19-.25.34-.25.16-.48.16-.44 0-.68-.53-.23-.53-.23-1.55v-.34q0-.02-.23-.02-.52 0-1.19.09-.67.08-.67.2 0 .17-.1.52-.06.17-.06.36l.02.41q0 .34-.17.59t-.5.24q-.57 0-.57-.65l.02-.4q0-.16.1-.77.14-.82.21-2.11l.08-1.06q.01-.16.22-.33.22-.17.48-.17.53 0 .53.4l-.02.1q-.22 1.38-.22 1.77v.03q.05.03 1.34-.1.65-.06.76-.1.06-.02.13-.86.07-.79.26-1.05.2-.27.53-.27.32 0 .47.15.16.15.12.4l-.09.36-.08.3q-.29.99-.29 1.87zm3.04-4.3q-.15 0-.21-.05-.06-.06-.1-.21-.02-.09-.07-.19-.14-.32-.14-.58 0-.24.28-.48t.63-.24q.18 0 .42.15t.24.3q0 .18-.13.6-.14.4-.46.56-.31.14-.46.14zm-1.31 3.05q.15-.9.15-1.02 0-.36.16-.6.16-.25.45-.25.33 0 .52.15.18.16.18.36 0 .2-.18.8l-.03.11q-.27.95-.32 1.55-.05.6-.05.97 0 .3.1.8l.01.14q0 .12-.21.3-.21.2-.46.2-.65 0-.65-.98 0-.88.24-2.03l.09-.5zm5.15.75q.22.05.4.2.2.13.46.5.51.7.8.92.3.22.65.22.36 0 .36.23 0 .21-.25.43t-.79.22q-.82 0-1.68-1.36-.5-.8-.83-.8l-.24.05q-.19.07-.25.12-.06.05-.1.63l-.05.9q-.01.22-.18.38-.17.16-.43.16-.27 0-.42-.15-.15-.15-.15-.3 0-.19.12-.8.3-1.55.46-3.78.02-.29.24-.52.22-.24.5-.24.2 0 .34.17.13.18.13.4 0 .18-.06.36-.07.21-.2.86-.14.66-.17 1 .58-.18.9-.5.33-.3.81-1 .4-.57.76-.84.35-.27.77-.27.24 0 .43.2.2.19.2.4 0 .18-.11.28-.1.09-.38.17-.35.1-.75.56-.82.95-1.3 1.2zm6.65.87q-1.29 1.7-2.47 1.7-.44 0-.76-.36-.32-.34-.32-.88 0-1.3 1.16-2.77t2.34-1.47q.6 0 .78.6.57 0 .57.43 0 .2-.11.75-.2 1-.2 1.61 0 .63.08.89l.13.33q.04.08.24.17.2.09.2.26 0 .25-.26.41-.25.17-.53.17-.46 0-.66-.46t-.2-1.08v-.3zm-.27-2.73q-.5 0-1.29 1.1-.8 1.09-.8 1.86 0 .4.18.4.58 0 1.42-1.03.85-1.03.85-1.8 0-.24-.11-.39-.11-.14-.25-.14z" transform="matrix(1.00506 0 0 .99497 -49.3 -86.05) " filter="url(#a)" />
  <path d="M6.58 6.96q.37 0 .37.36 0 .45-1.09 1.11-1.08.66-2.1.66-.9 0-1.65-.58-.75-.58-.75-1.7 0-1.13.78-2.51.8-1.38 1.96-2.25 1.17-.87 2.28-.87.66 0 1.05.39.4.39.4.91 0 .57-.1.82-.08.24-.37.42-.3.17-.47.17-.2 0-.33-.13-.14-.13-.14-.36 0-.15.09-.45.07-.3.07-.5 0-.34-.23-.34-.7 0-1.6.76-.87.75-1.5 1.87-.63 1.11-.63 1.96 0 .57.33.96.33.4.97.4.37 0 .94-.2T5.9 7.3q.5-.35.67-.35zm5.17.28q-1.53 1.2-2.35 1.2-.53 0-.84-.43-.31-.42-.31-1 0-.76.3-1.9.32-1.14.53-1.32.2-.17.55-.17.22 0 .36.2.14.19.14.45 0 .07-.36.82-.43.92-.43 1.59 0 .31.1.51t.22.2q.24 0 .56-.13.32-.14.78-.5.46-.35.6-.53.12-.18.2-.48.08-.3.13-1.26.02-.57.05-.72.04-.14.18-.26.14-.13.38-.13.33 0 .46.14.14.14.14.65 0 .68-.25 2.93t-.91 3.25q-.66 1.01-1.78 1.01-1 0-1.74-.51-.75-.52-.75-.92 0-.23.12-.37.12-.14.3-.14.17 0 .27.14.7.8 1.71.8 1.27 0 1.64-3.12zm5.47.86l.25-1.2.17-.84q-.63.5-1.33.86-.69.36-1.1.36-.52 0-.84-.41-.31-.42-.31-1.02 0-.64.17-1.31.18-.67.43-.95.26-.27.68-.27.22 0 .33.22.1.22.1.42 0 .28-.27.78-.26.46-.26.85 0 .22.07.39.06.16.15.16.41 0 1.04-.42.63-.42.9-.74.26-.32.26-.71 0-.12-.02-.2l-.02-.16q0-.33.2-.56.2-.22.43-.22.34 0 .48.15.14.14.14.64 0 1.12-.24 2.77-.23 1.66-.38 1.88-.14.21-.45.21-.3 0-.46-.12-.17-.12-.17-.3 0-.16.05-.26zm5.8-1.07q-1.28 1.69-2.47 1.69-.45 0-.77-.35t-.32-.88q0-1.3 1.17-2.76 1.16-1.46 2.35-1.46.6 0 .78.6.57 0 .57.43 0 .2-.1.74-.2 1-.2 1.6 0 .63.08.89l.13.33q.04.08.23.16.2.1.2.26 0 .25-.25.42-.26.16-.53.16-.47 0-.67-.46-.2-.46-.2-1.07v-.3zm-.26-2.72q-.5 0-1.3 1.1-.8 1.08-.8 1.85 0 .4.17.4.59 0 1.43-1.02.86-1.03.86-1.8 0-.24-.12-.38-.1-.15-.24-.15zm4.29 4.62q-.81 0-1.24-.44-.42-.44-.42-1.22 0-1.23 1-2.67 1.02-1.43 2-1.43.46 0 .79.47.33.46.33.96 0 .46-.18.63-.17.16-.33.16-.48 0-.56-.65-.06-.48-.24-.48-.39 0-1.02 1.08-.63 1.09-.63 1.9 0 .66.72.66.8 0 1.6-.56.38-.26.6-.26.28 0 .28.26 0 .38-.88.99-.86.6-1.82.6zm8.19-2.26q.01 1.1.35 1.38.2.17.2.31 0 .18-.25.34t-.48.15q-.44 0-.69-.52-.23-.54-.23-1.54v-.34q0-.02-.22-.02-.53 0-1.2.08-.68.09-.68.2 0 .17-.1.52-.06.17-.06.36l.02.4q0 .35-.17.59t-.5.24q-.57 0-.57-.64l.01-.41q0-.15.1-.76.15-.82.22-2.1l.08-1.05q0-.16.22-.33t.48-.17q.53 0 .53.4l-.01.1q-.22 1.37-.22 1.76v.03q.04.03 1.34-.1.65-.06.76-.1.07-.01.14-.86.06-.78.25-1.04.2-.27.53-.27t.48.15q.16.14.12.4l-.09.36-.08.3q-.29.98-.29 1.85zm4.73.36Q38.7 8.72 37.5 8.72q-.45 0-.77-.35t-.32-.88q0-1.3 1.17-2.76 1.16-1.46 2.34-1.46.6 0 .8.6.56 0 .56.43 0 .2-.1.74-.2 1-.2 1.6 0 .63.08.89l.13.33q.04.08.23.16.2.1.2.26 0 .25-.26.42-.25.16-.52.16-.47 0-.68-.46-.2-.46-.2-1.07v-.15l.01-.15zm-.26-2.72q-.5 0-1.3 1.1-.8 1.08-.8 1.85 0 .4.17.4.58 0 1.43-1.02.86-1.03.86-1.8 0-.24-.12-.38-.1-.15-.24-.15zM51 6.98q0 .5-.87 1.21-.86.7-1.95.7-.83 0-1.31-.51-.48-.52-.48-1.45 0-1.37.98-2.56.97-1.2 2.08-1.2.56 0 .9.35.33.34.33.82 0 .85-.83 1.62-.82.77-2.1 1.06-.16.04-.16.18 0 .23.21.45.21.2.56.2 1 0 1.97-1 .19-.2.37-.2.3 0 .3.33zm-3.32-.87q.78-.15 1.37-.66.6-.5.6-.9 0-.17-.1-.28-.08-.1-.23-.1-.42 0-.95.62-.52.62-.69 1.32zM57 8.19q0 .12-.15.34-.16.22-.56.22-.48 0-.87-.82-.38-.83-.55-1.8l-.16-.77-.04-.3-.04-.27-.17.36q-.62 1.35-1.35 2.47l-.06.11-.08.1q-.6 1.08-1 1.08-.55 0-.55-.5 0-.37.52-.98.64-.76 1.64-2.67l.7-1.33q.11-.2.38-.2.16 0 .38.1t.3.23q.07.13.13.42.36 1.66.64 2.6.29.96.63 1.2.26.15.26.4zm5.24-1.21q0 .5-.87 1.21-.86.7-1.94.7-.84 0-1.32-.51-.47-.52-.47-1.45 0-1.37.97-2.56.98-1.2 2.09-1.2.55 0 .89.35.33.34.33.82 0 .85-.82 1.62-.83.77-2.11 1.06-.15.04-.15.18 0 .23.2.45.22.2.57.2.99 0 1.97-1 .18-.2.36-.2.3 0 .3.33zm-3.31-.87q.78-.15 1.37-.66.6-.5.6-.9 0-.17-.1-.28-.09-.1-.23-.1-.43 0-.95.62t-.7 1.32zm6.75.06q.22.05.41.19.2.13.46.5.51.7.8.92.3.22.65.22.37 0 .37.22t-.25.44q-.25.22-.8.22-.83 0-1.69-1.36-.5-.8-.83-.8-.05 0-.24.06-.2.06-.26.12-.05.04-.1.62l-.05.9q0 .21-.18.37-.17.16-.43.16-.27 0-.42-.15-.16-.15-.16-.3 0-.18.13-.8.3-1.53.46-3.75.02-.29.24-.52.22-.24.51-.24.2 0 .34.17.13.18.13.4 0 .18-.06.36-.07.2-.21.86-.14.65-.17.99.6-.18.92-.5.32-.3.8-1 .41-.56.77-.83.35-.27.77-.27.24 0 .43.2.2.19.2.4 0 .18-.1.27-.12.1-.4.17-.34.1-.74.56-.83.94-1.3 1.2zm4.64 2.18q-.06.5-.57.5-.65 0-.65-.92 0-1.5.17-2.55.13-.83.13-1.62 0-.2.12-.32.12-.13.34-.13.74 0 .74.88 0 .3-.26 1.47-.16.7-.16 1.03 1.42-3.07 2.55-3.07.46 0 .73.36.29.36.3 1.6 0 1.13.11 1.13.1 0 .62-1.1.59-1.21 1-1.6.42-.4.88-.4.55 0 .8.48.24.46.34 1.57.07.88.2 1.33.12.45.43.6.25.11.25.35 0 .2-.28.42-.29.21-.58.21-.5 0-.79-.49-.28-.5-.38-1.97-.05-.71-.11-.94-.06-.24-.19-.24-.1 0-.31.35-.2.35-.72 1.4-.45.93-.77 1.3t-.7.37q-.28 0-.57-.24-.29-.25-.31-1.78-.02-1.36-.18-1.36-.2 0-1 1.21-.78 1.21-1.18 2.17zm9.97 0q-.1.39-.25 1.45t-.18 1.42q-.03.37-.25.62-.23.26-.4.26-.23 0-.44-.17-.22-.17-.22-.36 0-.4.12-.91.74-2.93.81-6.04v-.1q0-.6.04-.8.04-.22.25-.42.2-.2.49-.2.23 0 .38.22.15.2.15.6 0 .4-.14 1.4.54-.9 1.3-1.5.77-.59 1.4-.59.55 0 .93.4.4.38.4.97 0 1.58-1.25 2.88Q82.21 8.77 81 8.77q-.56 0-.7-.43zm2.86-4q-.6 0-1.56 1.15-.96 1.17-.96 1.83 0 .17.17.3.17.14.4.14.63 0 1.43-.97.82-.98.82-1.89 0-.3-.1-.43-.09-.14-.2-.14zm7.13 1.83q-.33 1.14-1.25 1.93-.93.78-1.85.78-.73 0-1.2-.53-.48-.53-.48-1.3 0-1.26.87-2.48t2.1-1.22q.85 0 1.38.62.52.62.52 1.47 0 .37-.09.73zm-2.56-1.54q-.35.3-.68.97-.33.66-.33 1.33 0 .4.15.67.15.26.4.26.61 0 1.27-.72.66-.71.66-1.6 0-.51-.21-.83-.21-.33-.6-.33-.36 0-.66.25zm8.14 2.03q.01 1.1.35 1.38.2.17.2.31 0 .18-.25.34-.25.15-.48.15-.44 0-.69-.52-.23-.54-.23-1.54v-.34q0-.02-.22-.02-.53 0-1.2.08-.68.09-.68.2 0 .17-.1.52-.06.17-.06.36l.02.4q0 .35-.17.59t-.5.24q-.57 0-.57-.64l.02-.41q0-.15.1-.76.14-.82.21-2.1l.08-1.05q.01-.16.22-.33.22-.17.48-.17.53 0 .53.4l-.01.1q-.22 1.37-.22 1.76v.03q.04.03 1.34-.1.65-.06.76-.1.07-.01.14-.86.06-.78.25-1.04.2-.27.54-.27.32 0 .47.15.16.14.12.4l-.09.36-.08.3q-.29.98-.29 1.85zm3.05-4.29q-.15 0-.21-.05-.05-.05-.1-.2-.01-.09-.07-.2-.14-.31-.14-.57 0-.24.28-.48.29-.24.63-.24.19 0 .43.16.24.15.24.29 0 .18-.14.6-.13.4-.45.55-.32.14-.47.14zM97.6 5.42q.16-.89.16-1.02 0-.36.16-.6t.45-.24q.33 0 .52.15.19.16.19.35 0 .2-.18.8l-.03.12q-.27.94-.33 1.53-.05.6-.05.97 0 .3.1.8l.02.14q0 .11-.22.3-.21.2-.46.2-.65 0-.65-.98 0-.87.24-2.03l.08-.5zm5.18.75q.22.05.41.19.2.13.46.5.51.7.81.92.3.22.65.22.36 0 .36.22t-.25.44q-.25.22-.8.22-.83 0-1.69-1.36-.5-.8-.83-.8l-.24.06q-.2.06-.25.12-.06.04-.1.62l-.06.9q0 .21-.18.37-.17.16-.43.16-.27 0-.42-.15-.15-.15-.15-.3 0-.18.12-.8.3-1.53.47-3.75.02-.29.23-.52.22-.24.51-.24.2 0 .34.17.13.18.13.4 0 .18-.06.36-.07.2-.21.86-.13.65-.16.99.58-.18.9-.5.34-.3.82-1 .4-.56.76-.83.35-.27.78-.27.23 0 .43.2.2.19.2.4 0 .18-.11.27-.11.1-.39.17-.35.1-.75.56-.83.94-1.3 1.2zm6.68.86q-1.29 1.69-2.47 1.69-.45 0-.77-.35t-.32-.88q0-1.3 1.17-2.76 1.16-1.46 2.34-1.46.6 0 .8.6.56 0 .56.43 0 .2-.1.74-.2 1-.2 1.6 0 .63.08.89l.13.33q.04.08.23.16.2.1.2.26 0 .25-.26.42-.25.16-.52.16-.47 0-.68-.46-.2-.46-.2-1.07v-.15l.01-.15zm-.26-2.72q-.5 0-1.3 1.1-.8 1.08-.8 1.85 0 .4.17.4.58 0 1.43-1.02.86-1.03.86-1.8 0-.24-.12-.38-.1-.15-.24-.15z" fill="#eee"/>
</svg>
